<?xml version="1.0" encoding="iso-8859-1"?>
<!-- Generator: Adobe Illustrator 19.0.0, SVG Export Plug-In . SVG Version: 6.00 Build 0)  -->
<svg version="1.1" id="Capa_1" xmlns="http://www.w3.org/2000/svg" xmlns:xlink="http://www.w3.org/1999/xlink" x="0px" y="0px"
	 viewBox="0 0 512 512" style="enable-background:new 0 0 512 512;" xml:space="preserve">
<circle style="fill:#F2F2F2;" cx="256" cy="256" r="256"/>
<path style="fill:#FFFFFF;" d="M464.565,404.489c-12.131,17-26.29,32.465-42.12,46.017c-6.228,5.339-12.727,10.386-19.456,15.109
	c-41.597,29.226-92.285,46.383-146.986,46.383c-26.122,0-51.336-3.908-75.076-11.191c-7.899-2.414-15.632-5.204-23.186-8.349
	c-19.801-8.234-38.348-18.892-55.265-31.587L46.647,108.637l-6.384-40.26l50.625-8.025L352.635,18.87l49.57-7.858l6.228,39.299
	L464.565,404.489z"/>
<rect x="44.751" y="39.181" transform="matrix(0.9877 -0.1565 0.1565 0.9877 -10.074 36.6932)" style="fill:#FFD15C;" width="366.468" height="86.282"/>
<g>
	
		<rect x="75.756" y="170.341" transform="matrix(0.9877 -0.1565 0.1565 0.9877 -24.5946 40.1811)" style="fill:#E6E6E6;" width="334.237" height="11.877"/>
	
		<rect x="83.699" y="220.533" transform="matrix(0.9877 -0.1565 0.1565 0.9877 -32.3515 42.0426)" style="fill:#E6E6E6;" width="334.237" height="11.877"/>
	
		<rect x="91.671" y="270.716" transform="matrix(0.9877 -0.1565 0.1565 0.9877 -40.1068 43.9085)" style="fill:#E6E6E6;" width="334.237" height="11.877"/>
	
		<rect x="99.614" y="320.917" transform="matrix(0.9877 -0.1565 0.1565 0.9877 -47.8653 45.7701)" style="fill:#E6E6E6;" width="334.237" height="11.877"/>
	
		<rect x="115.518" y="421.302" transform="matrix(0.9877 -0.1565 0.1565 0.9877 -63.3792 49.496)" style="fill:#E6E6E6;" width="334.237" height="11.877"/>
	<path style="fill:#E6E6E6;" d="M422.445,450.507c-6.228,5.339-12.727,10.386-19.456,15.109l-222.062,35.192
		c-7.899-2.414-15.632-5.204-23.186-8.349L422.445,450.507z"/>
	
		<rect x="107.566" y="371.112" transform="matrix(0.9877 -0.1565 0.1565 0.9877 -55.6226 47.633)" style="fill:#E6E6E6;" width="334.237" height="11.877"/>
</g>
<g>
</g>
<g>
</g>
<g>
</g>
<g>
</g>
<g>
</g>
<g>
</g>
<g>
</g>
<g>
</g>
<g>
</g>
<g>
</g>
<g>
</g>
<g>
</g>
<g>
</g>
<g>
</g>
<g>
</g>
</svg>
